Coordinates
version=1
nRows=9
nColumns=63
inDegrees=yes

Units are S.I. units (second, meters, Newtons, ...)
If the header above contains a line with 'inDegrees', this indicates whether rotational values are in degrees (yes) or radians (no).

endheader
time	pelvis_tilt	pelvis_list	pelvis_rotation	pelvis_tx	pelvis_ty	pelvis_tz	hip_flexion_r	hip_adduction_r	hip_rotation_r	knee_angle_r	knee_angle_r_beta	ankle_angle_r	subtalar_angle_r	mtp_angle_r	hip_flexion_l	hip_adduction_l	hip_rotation_l	knee_angle_l	knee_angle_l_beta	ankle_angle_l	subtalar_angle_l	mtp_angle_l	L5_S1_Flex_Ext	L5_S1_Lat_Bending	L5_S1_axial_rotation	L4_L5_Flex_Ext	L4_L5_Lat_Bending	L4_L5_axial_rotation	L3_L4_Flex_Ext	L3_L4_Lat_Bending	L3_L4_axial_rotation	L2_L3_Flex_Ext	L2_L3_Lat_Bending	L2_L3_axial_rotation	L1_L2_Flex_Ext	L1_L2_Lat_Bending	L1_L2_axial_rotation	L1_T12_Flex_Ext	L1_T12_Lat_Bending	L1_T12_axial_rotation	Abs_r3	Abs_r2	Abs_r1	Abs_t1	Abs_t2	neck_flexion	neck_bending	neck_rotation	arm_flex_r	arm_add_r	arm_rot_r	elbow_flex_r	pro_sup_r	wrist_flex_r	wrist_dev_r	arm_flex_l	arm_add_l	arm_rot_l	elbow_flex_l	pro_sup_l	wrist_flex_l	wrist_dev_l
3.350000	2.086859	-6.433644	85.609132	0.299919	0.906132	0.718387	1.471293	2.704220	7.300992	4.364287	0.076171	24.937973	13.638728	0.000000	-1.283206	-5.043560	0.242354	1.453359	0.025366	21.272270	-11.661617	0.000000	-0.137059	0.435816	3.102945	-0.254531	0.579635	3.296879	-0.225173	1.059642	3.296879	-0.156644	1.059642	2.715077	-0.127273	0.888715	2.521143	-0.078315	0.675078	2.327209	-0.978995	4.930033	17.257650	0.000000	0.000000	23.214606	-3.893354	-4.304881	4.397075	-11.801981	35.581041	26.362397	74.876908	-18.229317	-1.959212	19.273905	-4.871172	120.711391	10.118579	37.457893	-14.368395	-5.603459
3.366667	2.101676	-6.472126	85.521000	0.299768	0.906122	0.718409	1.544636	2.698806	7.189326	4.481634	0.078219	24.967222	13.801638	0.000000	-1.293967	-5.039132	0.420692	1.383830	0.024152	20.892952	-12.114247	0.000000	-0.130353	0.447397	3.103040	-0.242079	0.595038	3.296980	-0.214157	1.087802	3.296980	-0.148981	1.087802	2.715160	-0.121046	0.912333	2.521220	-0.074484	0.693018	2.327280	-0.931100	5.061048	17.258179	0.000000	0.000000	23.656656	-3.902366	-4.137365	4.535400	-11.873189	35.946247	26.232499	75.106822	-18.408912	-1.945864	19.087919	-4.918021	119.731435	10.317228	37.098404	-13.209699	-5.632141
3.383333	2.143336	-6.514597	85.495148	0.299520	0.906114	0.718363	1.606626	2.718558	7.087063	4.579206	0.079922	24.968588	13.888671	0.000000	-1.289906	-5.063941	0.590222	1.328935	0.023194	20.527483	-12.456031	0.000000	-0.123833	0.461452	3.108972	-0.229971	0.613731	3.303283	-0.203445	1.121975	3.303283	-0.141529	1.121975	2.720351	-0.114991	0.940993	2.526040	-0.070758	0.714789	2.331729	-0.884528	5.220039	17.291172	0.000000	0.000000	24.044653	-3.877203	-4.014642	4.572716	-11.944584	35.973953	26.190460	75.649930	-18.625936	-1.930624	18.906672	-4.952451	118.543691	10.582124	36.738330	-12.050046	-5.732057
3.400000	2.209926	-6.557080	85.545815	0.299169	0.906117	0.718263	1.648674	2.763149	6.981804	4.644220	0.081057	24.928081	13.901832	0.000000	-1.276161	-5.114918	0.921757	1.278424	0.022313	20.118968	-12.901797	0.000000	-0.117935	0.477469	3.117135	-0.219017	0.635034	3.311956	-0.193755	1.160918	3.311956	-0.134788	1.160918	2.727493	-0.109514	0.973654	2.532672	-0.067388	0.739599	2.337851	-0.842396	5.401223	17.336568	0.000000	0.000000	24.372818	-3.804478	-3.939369	4.524786	-12.022167	35.754956	26.214999	76.376417	-18.885209	-1.966240	18.737387	-4.971652	117.233497	10.901297	36.415441	-10.972739	-5.905286
3.416667	2.290329	-6.594491	85.622578	0.298789	0.906146	0.718138	1.673871	2.823153	6.922486	4.685361	0.081775	24.832780	13.834199	0.000000	-1.260855	-5.181516	1.222740	1.238906	0.021623	19.731270	-13.253254	0.000000	-0.113705	0.494234	3.133116	-0.211162	0.657331	3.328936	-0.186806	1.201681	3.328936	-0.129954	1.201681	2.741477	-0.105587	1.007842	2.545657	-0.064971	0.765569	2.349837	-0.812185	5.590875	17.425452	0.000000	0.000000	24.633657	-3.679947	-3.893936	4.406769	-12.097306	35.323519	26.288522	77.246396	-19.186797	-2.048832	18.578854	-4.985975	115.759099	11.275206	36.240725	-10.056709	-6.172289
3.433333	2.371443	-6.630468	85.701239	0.298425	0.906206	0.718022	1.698751	2.885109	6.827482	4.717438	0.082335	24.711490	13.817964	0.000000	-1.226035	-5.257805	1.104266	1.242489	0.021686	19.510819	-12.977527	0.000000	-0.110480	0.510219	3.155951	-0.205172	0.678592	3.353198	-0.181508	1.240547	3.353198	-0.126268	1.240547	2.761457	-0.102592	1.040439	2.564210	-0.063128	0.790330	2.366964	-0.789148	5.771702	17.552455	0.000000	0.000000	24.818267	-3.515814	-3.862815	4.251336	-12.170591	34.818733	26.370246	78.096861	-19.507011	-2.231060	18.425146	-5.002280	114.098259	11.688449	36.290178	-9.375931	-6.523856
3.450000	2.450613	-6.650637	85.786532	0.298081	0.906313	0.717904	1.695824	2.949616	6.827034	4.711470	0.082231	24.535993	13.679788	0.000000	-1.208210	-5.331679	1.082510	1.234527	0.021547	19.279120	-12.801048	0.000000	-0.109209	0.525319	3.180615	-0.202811	0.698675	3.379404	-0.179419	1.277262	3.379404	-0.124814	1.277262	2.783038	-0.101411	1.071231	2.584250	-0.062402	0.813720	2.385461	-0.780066	5.942519	17.689628	0.000000	0.000000	24.902865	-3.342180	-3.864772	4.048853	-12.226767	34.149644	26.475083	79.027592	-19.797668	-2.444837	18.280900	-5.018776	112.386206	12.119818	36.455137	-8.901677	-6.909653
3.466667	2.519298	-6.658813	85.869975	0.297782	0.906471	0.717817	1.682666	3.006462	6.801434	4.687831	0.081818	24.355912	13.589229	0.000000	-1.192403	-5.398083	1.021492	1.234466	0.021545	19.101350	-12.540249	0.000000	-0.109533	0.538755	3.201227	-0.203413	0.716544	3.401303	-0.179951	1.309928	3.401303	-0.125185	1.309928	2.801073	-0.101712	1.098629	2.600997	-0.062587	0.834531	2.400920	-0.782381	6.094501	17.804262	0.000000	0.000000	24.878104	-3.177974	-3.868375	3.840238	-12.268289	33.454868	26.574257	79.943010	-20.069205	-2.688503	18.132851	-5.051012	110.537169	12.561347	36.774446	-8.622246	-7.309704
3.483333	2.566599	-6.658513	85.935398	0.297555	0.906682	0.717788	1.677683	3.042643	6.663775	4.672651	0.081553	24.206977	13.681008	0.000000	-1.170973	-5.447142	0.786896	1.249311	0.021805	19.042371	-12.035064	0.000000	-0.111407	0.549396	3.215520	-0.206894	0.730697	3.416490	-0.183031	1.335802	3.416490	-0.127327	1.335802	2.813580	-0.103453	1.120329	2.612610	-0.063658	0.851015	2.411640	-0.795769	6.214880	17.883759	0.000000	0.000000	24.749104	-3.040905	-3.865284	3.651603	-12.296353	32.833720	26.654597	80.748111	-20.312366	-2.939158	17.973233	-5.110981	108.504059	13.006063	37.289541	-8.483434	-7.700252
